<?xml version="1.0" encoding="UTF-8" standalone="no"?>
<svg
   xmlns:ooo="http://xml.openoffice.org/svg/export"
   xmlns:dc="http://purl.org/dc/elements/1.1/"
   xmlns:cc="http://creativecommons.org/ns#"
   xmlns:rdf="http://www.w3.org/1999/02/22-rdf-syntax-ns#"
   xmlns:svg="http://www.w3.org/2000/svg"
   xmlns="http://www.w3.org/2000/svg"
   xmlns:sodipodi="http://sodipodi.sourceforge.net/DTD/sodipodi-0.dtd"
   xmlns:inkscape="http://www.inkscape.org/namespaces/inkscape"
   version="1.2"
   width="250mm"
   height="250mm"
   viewBox="0 0 25000 25000"
   preserveAspectRatio="xMidYMid"
   fill-rule="evenodd"
   stroke-width="28.222"
   stroke-linejoin="round"
   xml:space="preserve"
   id="svg11740"
   inkscape:version="0.91 r13725"
   sodipodi:docname="light_protection_003.svg"><title
     id="title12045">light protection</title><metadata
     id="metadata12043"><rdf:RDF><cc:Work
         rdf:about=""><dc:format>image/svg+xml</dc:format><dc:type
           rdf:resource="http://purl.org/dc/dcmitype/StillImage" /><dc:title>light protection</dc:title><dc:creator><cc:Agent><dc:title>anarchy domisi ideon</dc:title></cc:Agent></dc:creator><dc:description> work safety signs</dc:description></cc:Work></rdf:RDF></metadata><sodipodi:namedview
     pagecolor="#ffffff"
     bordercolor="#666666"
     borderopacity="1"
     objecttolerance="10"
     gridtolerance="10"
     guidetolerance="10"
     inkscape:pageopacity="0"
     inkscape:pageshadow="2"
     inkscape:window-width="825"
     inkscape:window-height="480"
     id="namedview12041"
     showgrid="false"
     inkscape:zoom="0.26641778"
     inkscape:cx="442.91339"
     inkscape:cy="442.91339"
     inkscape:window-x="198"
     inkscape:window-y="141"
     inkscape:window-maximized="0"
     inkscape:current-layer="svg11740" /><defs
     class="ClipPathGroup"
     id="defs11742"><clipPath
       id="presentation_clip_path"
       clipPathUnits="userSpaceOnUse"><rect
         x="0"
         y="0"
         width="25000"
         height="25000"
         id="rect11745" /></clipPath></defs><defs
     class="TextShapeIndex"
     id="defs11747"><g
       ooo:slide="id1"
       ooo:id-list="id3 id4 id5 id6 id7 id8 id9 id10 id11 id12 id13 id14 id15 id16 id17 id18 id19 id20 id21 id22 id23 id24 id25 id26 id27 id28 id29 id30 id31 id32 id33 id34 id35 id36 id37 id38 id39 id40 id41 id42 id43 id44 id45 id46 id47"
       id="g11749" /></defs><defs
     class="EmbeddedBulletChars"
     id="defs11751"><g
       id="bullet-char-template(57356)"
       transform="scale(0.00048828125,-0.00048828125)"><path
         d="M 580,1141 L 1163,571 580,0 -4,571 580,1141 Z"
         id="path11754" /></g><g
       id="bullet-char-template(57354)"
       transform="scale(0.00048828125,-0.00048828125)"><path
         d="M 8,1128 L 1137,1128 1137,0 8,0 8,1128 Z"
         id="path11757" /></g><g
       id="bullet-char-template(10146)"
       transform="scale(0.00048828125,-0.00048828125)"><path
         d="M 174,0 L 602,739 174,1481 1456,739 174,0 Z M 1358,739 L 309,1346 659,739 1358,739 Z"
         id="path11760" /></g><g
       id="bullet-char-template(10132)"
       transform="scale(0.00048828125,-0.00048828125)"><path
         d="M 2015,739 L 1276,0 717,0 1260,543 174,543 174,936 1260,936 717,1481 1274,1481 2015,739 Z"
         id="path11763" /></g><g
       id="bullet-char-template(10007)"
       transform="scale(0.00048828125,-0.00048828125)"><path
         d="M 0,-2 C -7,14 -16,27 -25,37 L 356,567 C 262,823 215,952 215,954 215,979 228,992 255,992 264,992 276,990 289,987 310,991 331,999 354,1012 L 381,999 492,748 772,1049 836,1024 860,1049 C 881,1039 901,1025 922,1006 886,937 835,863 770,784 769,783 710,716 594,584 L 774,223 C 774,196 753,168 711,139 L 727,119 C 717,90 699,76 672,76 641,76 570,178 457,381 L 164,-76 C 142,-110 111,-127 72,-127 30,-127 9,-110 8,-76 1,-67 -2,-52 -2,-32 -2,-23 -1,-13 0,-2 Z"
         id="path11766" /></g><g
       id="bullet-char-template(10004)"
       transform="scale(0.00048828125,-0.00048828125)"><path
         d="M 285,-33 C 182,-33 111,30 74,156 52,228 41,333 41,471 41,549 55,616 82,672 116,743 169,778 240,778 293,778 328,747 346,684 L 369,508 C 377,444 397,411 428,410 L 1163,1116 C 1174,1127 1196,1133 1229,1133 1271,1133 1292,1118 1292,1087 L 1292,965 C 1292,929 1282,901 1262,881 L 442,47 C 390,-6 338,-33 285,-33 Z"
         id="path11769" /></g><g
       id="bullet-char-template(9679)"
       transform="scale(0.00048828125,-0.00048828125)"><path
         d="M 813,0 C 632,0 489,54 383,161 276,268 223,411 223,592 223,773 276,916 383,1023 489,1130 632,1184 813,1184 992,1184 1136,1130 1245,1023 1353,916 1407,772 1407,592 1407,412 1353,268 1245,161 1136,54 992,0 813,0 Z"
         id="path11772" /></g><g
       id="bullet-char-template(8226)"
       transform="scale(0.00048828125,-0.00048828125)"><path
         d="M 346,457 C 273,457 209,483 155,535 101,586 74,649 74,723 74,796 101,859 155,911 209,963 273,989 346,989 419,989 480,963 531,910 582,859 608,796 608,723 608,648 583,586 532,535 482,483 420,457 346,457 Z"
         id="path11775" /></g><g
       id="bullet-char-template(8211)"
       transform="scale(0.00048828125,-0.00048828125)"><path
         d="M -4,459 L 1135,459 1135,606 -4,606 -4,459 Z"
         id="path11778" /></g></defs><defs
     class="TextEmbeddedBitmaps"
     id="defs11780" /><g
     id="g11782"><g
       id="id2"
       class="Master_Slide"><g
         id="bg-id2"
         class="Background" /><g
         id="bo-id2"
         class="BackgroundObjects" /></g></g><g
     class="SlideGroup"
     id="g11787"><g
       id="g11789"><g
         id="id1"
         class="Slide"
         clip-path="url(#presentation_clip_path)"><g
           class="Page"
           id="g11792"><g
             class="com.sun.star.drawing.ClosedBezierShape"
             id="g11794"><g
               id="id3"><path
                 fill="rgb(85,34,0)"
                 stroke="none"
                 d="M 7925,8518 C 8636,10497 7950,12555 6392,13115 4833,13676 2993,12526 2282,10548 1570,8569 2257,6511 3815,5951 5373,5390 7213,6540 7925,8518 Z"
                 id="path11797" /></g></g><g
             class="com.sun.star.drawing.ClosedBezierShape"
             id="g11799"><g
               id="id4"><path
                 fill="rgb(211,141,95)"
                 stroke="none"
                 d="M 6855,9242 C 7289,10451 6870,11709 5918,12051 4965,12394 3841,11691 3407,10482 2972,9273 3392,8016 4343,7674 5296,7332 6420,8034 6855,9242 Z"
                 id="path11802" /></g></g><g
             class="com.sun.star.drawing.ClosedBezierShape"
             id="g11804"><g
               id="id5"><path
                 fill="rgb(85,34,0)"
                 stroke="none"
                 d="M 17079,8518 C 16367,10497 17054,12555 18612,13115 20170,13676 22010,12526 22722,10548 23433,8569 22747,6511 21189,5951 19630,5390 17790,6540 17079,8518 Z"
                 id="path11807" /></g></g><g
             class="com.sun.star.drawing.ClosedBezierShape"
             id="g11809"><g
               id="id6"><path
                 fill="rgb(211,141,95)"
                 stroke="none"
                 d="M 18149,9242 C 17714,10451 18134,11709 19085,12051 20038,12394 21162,11691 21597,10482 22031,9273 21612,8016 20660,7674 19707,7332 18583,8034 18149,9242 Z"
                 id="path11812" /></g></g><g
             class="com.sun.star.drawing.ClosedBezierShape"
             id="g11814"><g
               id="id7"><path
                 fill="rgb(85,34,0)"
                 stroke="none"
                 d="M 5957,6827 C 6062,12083 7498,14148 9310,14148 L 15693,14148 C 17506,14148 18606,14288 18969,7617 19332,944 5852,1572 5957,6827 Z"
                 id="path11817" /></g></g><g
             class="com.sun.star.drawing.ClosedBezierShape"
             id="g11819"><g
               id="id8"><path
                 fill="none"
                 stroke="rgb(85,34,0)"
                 stroke-width="911"
                 stroke-linejoin="miter"
                 d="M 5957,6827 C 6062,12083 7498,14148 9310,14148 L 15693,14148 C 17506,14148 18606,14288 18969,7617 19332,944 5852,1572 5957,6827 Z"
                 id="path11822" /></g></g><g
             class="com.sun.star.drawing.ClosedBezierShape"
             id="g11824"><g
               id="id9"><path
                 fill="rgb(211,141,95)"
                 stroke="none"
                 d="M 9301,4485 C 7899,4861 6651,5959 6651,7777 6651,9594 7484,12346 9301,12346 L 15699,12346 C 17516,12346 18350,9594 18350,7777 18350,5959 17411,4944 15699,4485 13987,4026 12855,5312 12501,5324 12145,5336 10703,4110 9301,4485 Z"
                 id="path11827" /></g></g><g
             class="com.sun.star.drawing.ClosedBezierShape"
             id="g11829"><g
               id="id10"><path
                 fill="rgb(255,255,255)"
                 stroke="none"
                 d="M 16424,9011 C 16424,10089 15550,10963 14472,10963 13392,10963 12518,10089 12518,9011 12518,7931 13392,7057 14472,7057 15550,7057 16424,7931 16424,9011 Z"
                 id="path11832" /></g></g><g
             class="com.sun.star.drawing.ClosedBezierShape"
             id="g11834"><g
               id="id11"><path
                 fill="none"
                 stroke="rgb(0,0,0)"
                 stroke-width="221"
                 stroke-linejoin="miter"
                 d="M 16424,9011 C 16424,10089 15550,10963 14472,10963 13392,10963 12518,10089 12518,9011 12518,7931 13392,7057 14472,7057 15550,7057 16424,7931 16424,9011 Z"
                 id="path11837" /></g></g><g
             class="com.sun.star.drawing.ClosedBezierShape"
             id="g11839"><g
               id="id12"><path
                 fill="rgb(0,0,0)"
                 stroke="none"
                 d="M 15084,8844 C 15084,9183 14810,9457 14472,9457 14133,9457 13859,9183 13859,8844 13859,8506 14133,8232 14472,8232 14810,8232 15084,8506 15084,8844 Z"
                 id="path11842" /></g></g><g
             class="com.sun.star.drawing.ClosedBezierShape"
             id="g11844"><g
               id="id13"><path
                 fill="rgb(160,90,44)"
                 stroke="none"
                 d="M 16424,8845 C 16424,8845 14659,8539 13889,8569 13120,8599 12518,8845 12518,8845 12518,7765 13392,6891 14472,6891 15550,6891 16424,7765 16424,8845 Z"
                 id="path11847" /></g></g><g
             class="com.sun.star.drawing.ClosedBezierShape"
             id="g11849"><g
               id="id14"><path
                 fill="none"
                 stroke="rgb(0,0,0)"
                 stroke-width="221"
                 stroke-linejoin="miter"
                 d="M 16424,8845 C 16424,8845 14659,8539 13889,8569 13120,8599 12518,8845 12518,8845 12518,7765 13392,6891 14472,6891 15550,6891 16424,7765 16424,8845 Z"
                 id="path11852" /></g></g><g
             class="com.sun.star.drawing.ClosedBezierShape"
             id="g11854"><g
               id="id15"><path
                 fill="rgb(255,255,255)"
                 stroke="none"
                 d="M 12409,9177 C 12409,10255 11535,11129 10457,11129 9377,11129 8503,10255 8503,9177 8503,8097 9377,7223 10457,7223 11535,7223 12409,8097 12409,9177 Z"
                 id="path11857" /></g></g><g
             class="com.sun.star.drawing.ClosedBezierShape"
             id="g11859"><g
               id="id16"><path
                 fill="none"
                 stroke="rgb(0,0,0)"
                 stroke-width="221"
                 stroke-linejoin="miter"
                 d="M 12409,9177 C 12409,10255 11535,11129 10457,11129 9377,11129 8503,10255 8503,9177 8503,8097 9377,7223 10457,7223 11535,7223 12409,8097 12409,9177 Z"
                 id="path11862" /></g></g><g
             class="com.sun.star.drawing.ClosedBezierShape"
             id="g11864"><g
               id="id17"><path
                 fill="rgb(0,0,0)"
                 stroke="none"
                 d="M 11069,8956 C 11069,9294 10795,9568 10457,9568 10118,9568 9844,9294 9844,8956 9844,8617 10118,8343 10457,8343 10795,8343 11069,8617 11069,8956 Z"
                 id="path11867" /></g></g><g
             class="com.sun.star.drawing.ClosedBezierShape"
             id="g11869"><g
               id="id18"><path
                 fill="rgb(160,90,44)"
                 stroke="none"
                 d="M 12409,8956 C 12409,8956 11670,8512 11058,8532 9677,8532 8503,8956 8503,8956 8503,7876 9377,7002 10457,7002 11535,7002 12409,7876 12409,8956 Z"
                 id="path11872" /></g></g><g
             class="com.sun.star.drawing.ClosedBezierShape"
             id="g11874"><g
               id="id19"><path
                 fill="none"
                 stroke="rgb(0,0,0)"
                 stroke-width="221"
                 stroke-linejoin="miter"
                 d="M 12409,8956 C 12409,8956 11670,8512 11058,8532 9677,8532 8503,8956 8503,8956 8503,7876 9377,7002 10457,7002 11535,7002 12409,7876 12409,8956 Z"
                 id="path11877" /></g></g><g
             class="com.sun.star.drawing.ClosedBezierShape"
             id="g11879"><g
               id="id20"><path
                 fill="rgb(211,141,95)"
                 stroke="none"
                 d="M 20155,16180 C 20155,16180 15028,15628 12463,15628 9899,15628 4772,16180 4772,16180 4772,13064 8215,10538 12463,10538 16712,10538 20155,13063 20155,16180 Z"
                 id="path11882" /></g></g><g
             class="com.sun.star.drawing.PolyPolygonShape"
             id="g11884"><g
               id="id21"><path
                 fill="rgb(51,51,51)"
                 stroke="none"
                 d="M 5600,5850 L 6701,6880 6151,7348 6151,10251 6040,10157 5600,5850 Z"
                 id="path11887" /></g></g><g
             class="com.sun.star.drawing.PolyPolygonShape"
             id="g11889"><g
               id="id22"><path
                 fill="none"
                 stroke="rgb(0,0,0)"
                 stroke-width="28"
                 stroke-linejoin="round"
                 d="M 5600,5850 L 6701,6880 6151,7348 6151,10251 6040,10157 5600,5850 Z"
                 id="path11892" /></g></g><g
             class="com.sun.star.drawing.ClosedBezierShape"
             id="g11894"><g
               id="id23"><path
                 fill="rgb(0,0,0)"
                 fill-opacity="0.878"
                 stroke="rgb(255,255,255)"
                 stroke-opacity="0.878"
                 d="M 6830,7073 C 6474,7101 6119,7488 6119,7847 L 6119,10714 C 6119,11072 6474,11403 6830,11374 L 11389,11009 C 11745,10981 12101,10593 12101,10235 L 12101,7367 C 12101,7009 11745,6679 11389,6708 L 6830,7073 Z"
                 id="path11897" /><defs
                 id="defs11899"><mask
                   id="mask1"><g
                     id="g11902"><defs
                       id="defs11904"><linearGradient
                         id="gradient1"
                         x1="9110"
                         y1="6692"
                         x2="9110"
                         y2="11390"
                         gradientUnits="userSpaceOnUse"><stop
                           offset="0.5"
                           style="stop-color:rgb(31,31,31)"
                           id="stop11907" /><stop
                           offset="0.5"
                           style="stop-color:rgb(31,31,31)"
                           id="stop11909" /><stop
                           offset="1"
                           style="stop-color:rgb(31,31,31)"
                           id="stop11911" /><stop
                           offset="1"
                           style="stop-color:rgb(31,31,31)"
                           id="stop11913" /></linearGradient></defs><path
                       style="fill:url(#gradient1)"
                       d="M 6105,6692 L 12115,6692 12115,11390 6105,11390 6105,6692 Z"
                       id="path11915" /></g></mask></defs><g
                 style="mask:url(#mask1)"
                 id="g11917"
                 mask="url(#mask1)"><path
                   fill="none"
                   stroke="rgb(255,255,255)"
                   stroke-width="28"
                   stroke-linejoin="round"
                   d="M 6830,7073 C 6474,7101 6119,7488 6119,7847 L 6119,10714 C 6119,11072 6474,11403 6830,11374 L 11389,11009 C 11745,10981 12101,10593 12101,10235 L 12101,7367 C 12101,7009 11745,6679 11389,6708 L 6830,7073 Z"
                   id="path11919" /></g></g></g><g
             class="com.sun.star.drawing.ClosedBezierShape"
             id="g11921"><g
               id="id24"><path
                 fill="none"
                 stroke="rgb(0,0,0)"
                 stroke-width="500"
                 stroke-linejoin="round"
                 d="M 6830,7073 C 6474,7101 6119,7488 6119,7847 L 6119,10714 C 6119,11072 6474,11403 6830,11374 L 11389,11009 C 11745,10981 12101,10593 12101,10235 L 12101,7367 C 12101,7009 11745,6679 11389,6708 L 6830,7073 Z"
                 id="path11924" /></g></g><g
             class="com.sun.star.drawing.PolyPolygonShape"
             id="g11926"><g
               id="id25"><path
                 fill="rgb(230,230,255)"
                 fill-opacity="0.251"
                 stroke="rgb(255,255,255)"
                 stroke-opacity="0.251"
                 d="M 9601,7050 L 8700,8897 9601,9001 8600,10951 9601,10951 10601,8589 9801,8487 10401,7153 9601,7050 Z"
                 id="path11929" /></g></g><g
             class="com.sun.star.drawing.ClosedBezierShape"
             id="g11931"><g
               id="id26"><path
                 fill="rgb(211,141,95)"
                 stroke="none"
                 d="M 10299,12789 C 9351,12608 8690,11901 8822,11210 8954,10518 9829,10105 10777,10286 11724,10467 12387,11175 12255,11866 12123,12557 11246,12970 10299,12789 Z"
                 id="path11934" /></g></g><g
             class="com.sun.star.drawing.ClosedBezierShape"
             id="g11936"><g
               id="id27"><path
                 fill="none"
                 stroke="rgb(0,0,0)"
                 stroke-width="25"
                 stroke-linejoin="miter"
                 d="M 10299,12789 C 9351,12608 8690,11901 8822,11210 8954,10518 9829,10105 10777,10286 11724,10467 12387,11175 12255,11866 12123,12557 11246,12970 10299,12789 Z"
                 id="path11939" /></g></g><g
             class="com.sun.star.drawing.PolyPolygonShape"
             id="g11941"><g
               id="id28"><path
                 fill="rgb(51,51,51)"
                 stroke="none"
                 d="M 19327,5850 L 18100,6874 18714,7339 18714,10226 18837,10133 19327,5850 Z"
                 id="path11944" /></g></g><g
             class="com.sun.star.drawing.PolyPolygonShape"
             id="g11946"><g
               id="id29"><path
                 fill="none"
                 stroke="rgb(0,0,0)"
                 stroke-width="28"
                 stroke-linejoin="round"
                 d="M 19327,5850 L 18100,6874 18714,7339 18714,10226 18837,10133 19327,5850 Z"
                 id="path11949" /></g></g><g
             class="com.sun.star.drawing.ClosedBezierShape"
             id="g11951"><g
               id="id30"><path
                 fill="rgb(0,0,0)"
                 fill-opacity="0.878"
                 stroke="rgb(255,255,255)"
                 stroke-opacity="0.878"
                 d="M 18092,7165 C 18448,7198 18802,7589 18802,7947 L 18802,10817 C 18802,11175 18448,11501 18092,11468 L 13537,11045 C 13182,11012 12827,10620 12827,10262 L 12827,7392 C 12827,7034 13182,6709 13537,6742 L 18092,7165 Z"
                 id="path11954" /></g></g><g
             class="com.sun.star.drawing.ClosedBezierShape"
             id="g11956"><g
               id="id31"><path
                 fill="none"
                 stroke="rgb(0,0,0)"
                 stroke-width="500"
                 stroke-linejoin="round"
                 d="M 18092,7165 C 18448,7198 18802,7589 18802,7947 L 18802,10817 C 18802,11175 18448,11501 18092,11468 L 13537,11045 C 13182,11012 12827,10620 12827,10262 L 12827,7392 C 12827,7034 13182,6709 13537,6742 L 18092,7165 Z"
                 id="path11959" /></g></g><g
             class="com.sun.star.drawing.PolyPolygonShape"
             id="g11961"><g
               id="id32"><path
                 fill="rgb(230,230,255)"
                 fill-opacity="0.251"
                 stroke="rgb(255,255,255)"
                 stroke-opacity="0.251"
                 d="M 15901,7150 L 15000,8950 15901,9050 14900,10951 15901,10951 16901,8650 16101,8550 16701,7250 15901,7150 Z"
                 id="path11964" /></g></g><g
             class="com.sun.star.drawing.ClosedBezierShape"
             id="g11966"><g
               id="id33"><path
                 fill="rgb(211,141,95)"
                 stroke="none"
                 d="M 14325,12789 C 15272,12608 15935,11901 15803,11210 15671,10518 14794,10105 13847,10286 12899,10467 12238,11175 12370,11866 12502,12557 13377,12970 14325,12789 Z"
                 id="path11969" /></g></g><g
             class="com.sun.star.drawing.ClosedBezierShape"
             id="g11971"><g
               id="id34"><path
                 fill="none"
                 stroke="rgb(0,0,0)"
                 stroke-width="25"
                 stroke-linejoin="miter"
                 d="M 14325,12789 C 15272,12608 15935,11901 15803,11210 15671,10518 14794,10105 13847,10286 12899,10467 12238,11175 12370,11866 12502,12557 13377,12970 14325,12789 Z"
                 id="path11974" /></g></g><g
             class="com.sun.star.drawing.ClosedBezierShape"
             id="g11976"><g
               id="id35"><path
                 fill="rgb(40,23,11)"
                 stroke="none"
                 d="M 10582,12165 C 10179,12088 9897,11788 9954,11492 10010,11198 10382,11022 10786,11100 11190,11177 11471,11478 11415,11773 11359,12067 10985,12243 10582,12165 Z"
                 id="path11979" /></g></g><g
             class="com.sun.star.drawing.ClosedBezierShape"
             id="g11981"><g
               id="id36"><path
                 fill="rgb(40,23,11)"
                 stroke="none"
                 d="M 13988,12165 C 14392,12088 14673,11788 14617,11492 14561,11198 14187,11022 13784,11100 13381,11177 13099,11478 13156,11773 13212,12067 13584,12243 13988,12165 Z"
                 id="path11984" /></g></g><g
             class="com.sun.star.drawing.ClosedBezierShape"
             id="g11986"><g
               id="id37"><path
                 fill="rgb(211,141,95)"
                 stroke="none"
                 d="M 20155,16611 C 20155,16611 15028,16059 12463,16059 9899,16059 4772,16611 4772,16611 4772,19727 8215,22253 12463,22253 16712,22253 20155,19728 20155,16611 Z"
                 id="path11989" /></g></g><g
             class="com.sun.star.drawing.LineShape"
             id="g11991"><g
               id="id38"><path
                 fill="none"
                 stroke="rgb(0,0,0)"
                 stroke-width="28"
                 stroke-linejoin="round"
                 d="M 5600,5850 L 5624,5897"
                 id="path11994" /></g></g><g
             class="com.sun.star.drawing.LineShape"
             id="g11996"><g
               id="id39"><path
                 fill="none"
                 stroke="rgb(0,0,0)"
                 stroke-width="28"
                 stroke-linejoin="round"
                 d="M 5680,6009 L 5703,6056"
                 id="path11999" /></g></g><g
             class="com.sun.star.drawing.LineShape"
             id="g12001"><g
               id="id40"><path
                 fill="none"
                 stroke="rgb(0,0,0)"
                 stroke-width="28"
                 stroke-linejoin="round"
                 d="M 5759,6168 L 5874,6397"
                 id="path12004" /></g></g><g
             class="com.sun.star.drawing.LineShape"
             id="g12006"><g
               id="id41"><path
                 fill="none"
                 stroke="rgb(0,0,0)"
                 stroke-width="28"
                 stroke-linejoin="round"
                 d="M 5930,6509 L 6044,6737"
                 id="path12009" /></g></g><g
             class="com.sun.star.drawing.LineShape"
             id="g12011"><g
               id="id42"><path
                 fill="none"
                 stroke="rgb(0,0,0)"
                 stroke-width="28"
                 stroke-linejoin="round"
                 d="M 6100,6850 L 6201,7051"
                 id="path12014" /></g></g><g
             class="com.sun.star.drawing.LineShape"
             id="g12016"><g
               id="id43"><path
                 fill="none"
                 stroke="rgb(0,0,0)"
                 stroke-width="28"
                 stroke-linejoin="round"
                 d="M 19301,5850 L 19278,5897"
                 id="path12019" /></g></g><g
             class="com.sun.star.drawing.LineShape"
             id="g12021"><g
               id="id44"><path
                 fill="none"
                 stroke="rgb(0,0,0)"
                 stroke-width="28"
                 stroke-linejoin="round"
                 d="M 19223,6010 L 19199,6057"
                 id="path12024" /></g></g><g
             class="com.sun.star.drawing.LineShape"
             id="g12026"><g
               id="id45"><path
                 fill="none"
                 stroke="rgb(0,0,0)"
                 stroke-width="28"
                 stroke-linejoin="round"
                 d="M 19145,6170 L 19032,6399"
                 id="path12029" /></g></g><g
             class="com.sun.star.drawing.LineShape"
             id="g12031"><g
               id="id46"><path
                 fill="none"
                 stroke="rgb(0,0,0)"
                 stroke-width="28"
                 stroke-linejoin="round"
                 d="M 18978,6512 L 18865,6741"
                 id="path12034" /></g></g><g
             class="com.sun.star.drawing.LineShape"
             id="g12036"><g
               id="id47"><path
                 fill="none"
                 stroke="rgb(0,0,0)"
                 stroke-width="28"
                 stroke-linejoin="round"
                 d="M 18810,6855 L 18726,7026"
                 id="path12039" /></g></g></g></g></g></g></svg>